<?xml version="1.0" encoding="utf-8"?>
<!-- Generator: Adobe Illustrator 23.0.1, SVG Export Plug-In . SVG Version: 6.00 Build 0)  -->
<svg version="1.1" id="Layer_1" xmlns="http://www.w3.org/2000/svg" xmlns:xlink="http://www.w3.org/1999/xlink" x="0px" y="0px"
	 viewBox="0 0 300 280" style="enable-background:new 0 0 300 280;" xml:space="preserve">
<style type="text/css">
	.st0{fill:url(#SVGID_1_);}
	.st1{fill:#333333;}
	.st2{fill:url(#SVGID_2_);}
	.st3{fill:url(#SVGID_3_);}
	.st4{fill:url(#SVGID_4_);}
	.st5{fill:url(#SVGID_5_);}
	.st6{fill:url(#SVGID_6_);}
	.st7{fill:url(#SVGID_7_);}
	.st8{fill:url(#SVGID_8_);}
	.st9{fill:url(#SVGID_9_);}
	.st10{fill:url(#SVGID_10_);}
	.st11{fill:url(#SVGID_11_);}
	.st12{fill:url(#SVGID_12_);}
	.st13{fill:#C2D7E8;}
	.st14{fill:url(#SVGID_13_);}
	.st15{fill:#12404F;}
	.st16{fill:url(#SVGID_14_);}
	.st17{fill:url(#SVGID_15_);}
	.st18{fill:url(#SVGID_16_);}
	.st19{fill:url(#SVGID_17_);}
</style>
<g>
	
		<linearGradient id="SVGID_1_" gradientUnits="userSpaceOnUse" x1="-1137.1868" y1="-1466.0963" x2="-1017.4616" y2="-1350.4022" gradientTransform="matrix(2.4662 0 0 2.4662 2794.9673 3601.4832)">
		<stop  offset="0" style="stop-color:#DFF4FF"/>
		<stop  offset="9.800000e-02" style="stop-color:#D6EAF5"/>
		<stop  offset="0.268" style="stop-color:#BFD0D9"/>
		<stop  offset="0.488" style="stop-color:#98A5AC"/>
		<stop  offset="0.747" style="stop-color:#646B6E"/>
		<stop  offset="1" style="stop-color:#2B2B2B"/>
	</linearGradient>
	<path class="st0" d="M150,0.8C73.1,0.8,10.8,63.1,10.8,140c0,76.9,62.3,139.2,139.2,139.2c76.9,0,139.2-62.3,139.2-139.2
		C289.2,63.1,226.9,0.8,150,0.8z M150,272.2C77,272.2,17.8,213,17.8,140C17.8,67,77,7.8,150,7.8C223,7.8,282.2,67,282.2,140
		C282.2,213,223,272.2,150,272.2z"/>
	<path class="st1" d="M283.2,140c0,73.6-59.6,133.2-133.2,133.2c-73.6,0-133.2-59.6-133.2-133.2C16.8,66.4,76.4,6.8,150,6.8
		C223.6,6.8,283.2,66.4,283.2,140z"/>
	
		<radialGradient id="SVGID_2_" cx="-1129.6301" cy="-1456.2804" r="80.1667" gradientTransform="matrix(2.4662 0 0 2.4662 2794.9673 3601.4832)" gradientUnits="userSpaceOnUse">
		<stop  offset="0" style="stop-color:#FFFFFF"/>
		<stop  offset="0.306" style="stop-color:#A8A8A8"/>
		<stop  offset="0.646" style="stop-color:#4F4F4F"/>
		<stop  offset="0.885" style="stop-color:#161616"/>
		<stop  offset="1" style="stop-color:#000000"/>
	</radialGradient>
	<path class="st2" d="M282.2,140c0,73-59.2,132.2-132.2,132.2C77,272.2,17.8,213,17.8,140C17.8,67,77,7.8,150,7.8
		C223,7.8,282.2,67,282.2,140z"/>
	
		<linearGradient id="SVGID_3_" gradientUnits="userSpaceOnUse" x1="-249.7228" y1="-195.1405" x2="-173.4703" y2="-121.4556" gradientTransform="matrix(-2.4662 0 0 -2.4662 -364.2547 -243.0685)">
		<stop  offset="0" style="stop-color:#DFF4FF"/>
		<stop  offset="8.600000e-02" style="stop-color:#D6EAF5"/>
		<stop  offset="0.233" style="stop-color:#BED0D9"/>
		<stop  offset="0.424" style="stop-color:#96A4AC"/>
		<stop  offset="0.652" style="stop-color:#5F686D"/>
		<stop  offset="0.907" style="stop-color:#1A1D1E"/>
		<stop  offset="1" style="stop-color:#000000"/>
	</linearGradient>
	<path class="st3" d="M238.6,140c0,48.9-39.7,88.6-88.6,88.6c-48.9,0-88.6-39.7-88.6-88.6c0-48.9,39.7-88.6,88.6-88.6
		C198.9,51.4,238.6,91.1,238.6,140z"/>
	<path d="M153.6,49l9.2-24.4V49h7V14h-10.5l-9.6,25h0.1l-9.6-25h-10.5V49h7V24.6l9.2,24.4H153.6z M249.5,64.6l-11.9,17.4l18.8-9.2
		l5.1,6.1l-29.5,14.8l-6-7.2l11.4-17.3l-0.1-0.1l-19,8.2l-6-7.2l19.9-26.4l5.1,6.1l-12.5,16.8l19.3-8.6L249.5,64.6z"/>
	<path class="st1" d="M88.1,58c-2.8-2.7-7.2-3.6-11.2-1c0.8-2,0.5-4.1,0.1-5.2c-1.8-3.2-2.4-3.6-3.8-4.8c-4.7-3.9-9.6-0.6-13.2,3.6
		L42.9,70.9l26.8,22.5l18-21.4C91.8,67,92.4,62.2,88.1,58L88.1,58z M53.4,67.8l10.2-12.2c1.2-1.4,3.9-1.4,5.6,0.1
		c1.9,1.6,1.9,3.8,0.6,5.4L59.8,73.1L53.4,67.8L53.4,67.8z M81.7,69.8L71,82.5l-6.7-5.6l10.8-12.8c1.2-1.4,3.9-1.9,5.8-0.3
		C82.9,65.5,83.1,68.1,81.7,69.8L81.7,69.8z"/>
	
		<radialGradient id="SVGID_4_" cx="-1144.0278" cy="-1464.4443" r="192.6287" gradientTransform="matrix(2.4662 0 0 2.4662 2794.9673 3601.4832)" gradientUnits="userSpaceOnUse">
		<stop  offset="0" style="stop-color:#FFFFFF"/>
		<stop  offset="0.31" style="stop-color:#FDFDFD"/>
		<stop  offset="0.451" style="stop-color:#F6F6F6"/>
		<stop  offset="0.557" style="stop-color:#E9E9E9"/>
		<stop  offset="0.646" style="stop-color:#D7D7D7"/>
		<stop  offset="0.724" style="stop-color:#BFBFBF"/>
		<stop  offset="0.794" style="stop-color:#A2A2A2"/>
		<stop  offset="0.859" style="stop-color:#808080"/>
		<stop  offset="0.92" style="stop-color:#575757"/>
		<stop  offset="0.975" style="stop-color:#2B2B2B"/>
		<stop  offset="1" style="stop-color:#141414"/>
	</radialGradient>
	<path class="st4" d="M153.6,47.6l9.2-24.4v24.4h7V12.7h-10.5l-9.6,25h0.1l-9.6-25h-10.5v34.9h7V23.2l9.2,24.4H153.6z"/>
	
		<radialGradient id="SVGID_5_" cx="-1144.0364" cy="-1464.4443" r="192.6452" gradientTransform="matrix(2.4662 0 0 2.4662 2794.9673 3601.4832)" gradientUnits="userSpaceOnUse">
		<stop  offset="0" style="stop-color:#FFFFFF"/>
		<stop  offset="0.31" style="stop-color:#FDFDFD"/>
		<stop  offset="0.451" style="stop-color:#F6F6F6"/>
		<stop  offset="0.557" style="stop-color:#E9E9E9"/>
		<stop  offset="0.646" style="stop-color:#D7D7D7"/>
		<stop  offset="0.724" style="stop-color:#BFBFBF"/>
		<stop  offset="0.794" style="stop-color:#A2A2A2"/>
		<stop  offset="0.859" style="stop-color:#808080"/>
		<stop  offset="0.92" style="stop-color:#575757"/>
		<stop  offset="0.975" style="stop-color:#2B2B2B"/>
		<stop  offset="1" style="stop-color:#141414"/>
	</radialGradient>
	<path class="st5" d="M249.6,62.3l-11.9,17.4l18.8-9.2l5.1,6.1L232,91.4l-6-7.2l11.4-17.3l-0.1-0.1l-19,8.2l-6-7.2l19.9-26.4
		l5.1,6.1l-12.5,16.8l19.3-8.6L249.6,62.3z"/>
	
		<radialGradient id="SVGID_6_" cx="-1144.0469" cy="-1464.5009" r="192.7926" gradientTransform="matrix(2.4662 0 0 2.4662 2794.9673 3601.4832)" gradientUnits="userSpaceOnUse">
		<stop  offset="0" style="stop-color:#FFFFFF"/>
		<stop  offset="0.31" style="stop-color:#FDFDFD"/>
		<stop  offset="0.451" style="stop-color:#F6F6F6"/>
		<stop  offset="0.557" style="stop-color:#E9E9E9"/>
		<stop  offset="0.646" style="stop-color:#D7D7D7"/>
		<stop  offset="0.724" style="stop-color:#BFBFBF"/>
		<stop  offset="0.794" style="stop-color:#A2A2A2"/>
		<stop  offset="0.859" style="stop-color:#808080"/>
		<stop  offset="0.92" style="stop-color:#575757"/>
		<stop  offset="0.975" style="stop-color:#2B2B2B"/>
		<stop  offset="1" style="stop-color:#141414"/>
	</radialGradient>
	<path class="st6" d="M86.9,57.3c-2.8-2.7-7.2-3.6-11.2-1c0.8-2,0.5-4.1,0-5.2c-1.8-3.2-2.4-3.6-3.8-4.8c-4.7-3.9-9.6-0.6-13.1,3.6
		L41.6,70.2l26.8,22.5l18-21.4C90.5,66.3,91.2,61.5,86.9,57.3L86.9,57.3z M52.2,67.1l10.2-12.2c1.2-1.4,3.9-1.4,5.6,0.1
		c1.9,1.6,1.9,3.8,0.6,5.4L58.5,72.4L52.2,67.1L52.2,67.1z M80.4,69.1L69.8,81.8l-6.7-5.6l10.8-12.8c1.2-1.4,3.9-1.9,5.8-0.3
		C81.7,64.8,81.9,67.4,80.4,69.1L80.4,69.1z"/>
	
		<radialGradient id="SVGID_7_" cx="-1109.528" cy="-1437.739" r="51.9578" gradientTransform="matrix(2.4662 0 0 2.4662 2794.9673 3601.4832)" gradientUnits="userSpaceOnUse">
		<stop  offset="0" style="stop-color:#E6E6E6"/>
		<stop  offset="0.104" style="stop-color:#D6D6D6"/>
		<stop  offset="0.307" style="stop-color:#ADADAD"/>
		<stop  offset="0.588" style="stop-color:#6C6C6C"/>
		<stop  offset="0.933" style="stop-color:#121212"/>
		<stop  offset="1" style="stop-color:#000000"/>
	</radialGradient>
	<path class="st7" d="M64.3,140c0-47.3,38.4-85.7,85.7-85.7c47.3,0,85.7,38.4,85.7,85.7c0,47.3-38.4,85.7-85.7,85.7
		C102.7,225.7,64.3,187.3,64.3,140L64.3,140z"/>
	
		<radialGradient id="SVGID_8_" cx="-1095.3169" cy="-1430.7506" r="75.5616" gradientTransform="matrix(2.4662 0 0 2.4662 2794.9673 3601.4832)" gradientUnits="userSpaceOnUse">
		<stop  offset="0" style="stop-color:#FFFFFF"/>
		<stop  offset="0.344" style="stop-color:#FDFDFD"/>
		<stop  offset="0.481" style="stop-color:#F6F6F6"/>
		<stop  offset="0.582" style="stop-color:#EAEAEA"/>
		<stop  offset="0.665" style="stop-color:#D8D8D8"/>
		<stop  offset="0.737" style="stop-color:#C2C2C2"/>
		<stop  offset="0.802" style="stop-color:#A6A6A6"/>
		<stop  offset="0.86" style="stop-color:#848484"/>
		<stop  offset="0.913" style="stop-color:#5F5F5F"/>
		<stop  offset="0.949" style="stop-color:#404040"/>
		<stop  offset="0.957" style="stop-color:#404040"/>
		<stop  offset="1" style="stop-color:#404040"/>
		<stop  offset="1" style="stop-color:#000000"/>
	</radialGradient>
	<path class="st8" d="M66.8,140c0-46,37.3-83.2,83.2-83.2S233.2,94,233.2,140S196,223.2,150,223.2S66.8,186,66.8,140z"/>
	
		<radialGradient id="SVGID_9_" cx="-1117.5028" cy="-1459.3933" r="133.8205" gradientTransform="matrix(2.4662 0 0 2.4662 2794.9673 3601.4832)" gradientUnits="userSpaceOnUse">
		<stop  offset="0.169" style="stop-color:#FFFFFF"/>
		<stop  offset="0.196" style="stop-color:#E0EFF7"/>
		<stop  offset="0.241" style="stop-color:#B2D9EC"/>
		<stop  offset="0.287" style="stop-color:#8BC5E2"/>
		<stop  offset="0.335" style="stop-color:#6BB5DA"/>
		<stop  offset="0.384" style="stop-color:#52A9D4"/>
		<stop  offset="0.436" style="stop-color:#41A0CF"/>
		<stop  offset="0.491" style="stop-color:#369BCD"/>
		<stop  offset="0.556" style="stop-color:#3399CC"/>
		<stop  offset="0.606" style="stop-color:#3396C8"/>
		<stop  offset="0.655" style="stop-color:#328EBC"/>
		<stop  offset="0.705" style="stop-color:#3180A8"/>
		<stop  offset="0.754" style="stop-color:#2F6D8C"/>
		<stop  offset="0.803" style="stop-color:#2D5468"/>
		<stop  offset="0.851" style="stop-color:#2A373D"/>
		<stop  offset="0.871" style="stop-color:#292929"/>
	</radialGradient>
	<path class="st9" d="M66.7,140H150V56.7C104,56.7,66.7,94,66.7,140L66.7,140z"/>
	
		<radialGradient id="SVGID_10_" cx="-1117.5028" cy="-1459.3943" r="133.8179" gradientTransform="matrix(2.4662 0 0 2.4662 2794.9673 3601.4832)" gradientUnits="userSpaceOnUse">
		<stop  offset="0.169" style="stop-color:#FFFFFF"/>
		<stop  offset="0.196" style="stop-color:#E0EFF7"/>
		<stop  offset="0.241" style="stop-color:#B2D9EC"/>
		<stop  offset="0.287" style="stop-color:#8BC5E2"/>
		<stop  offset="0.335" style="stop-color:#6BB5DA"/>
		<stop  offset="0.384" style="stop-color:#52A9D4"/>
		<stop  offset="0.436" style="stop-color:#41A0CF"/>
		<stop  offset="0.491" style="stop-color:#369BCD"/>
		<stop  offset="0.556" style="stop-color:#3399CC"/>
		<stop  offset="0.606" style="stop-color:#3396C8"/>
		<stop  offset="0.655" style="stop-color:#328EBC"/>
		<stop  offset="0.705" style="stop-color:#3180A8"/>
		<stop  offset="0.754" style="stop-color:#2F6D8C"/>
		<stop  offset="0.803" style="stop-color:#2D5468"/>
		<stop  offset="0.851" style="stop-color:#2A373D"/>
		<stop  offset="0.871" style="stop-color:#292929"/>
	</radialGradient>
	<path class="st10" d="M150,140v83.3c46,0,83.3-37.3,83.3-83.3H150L150,140z"/>
	
		<radialGradient id="SVGID_11_" cx="-1108.8184" cy="-1437.0845" r="50.962" gradientTransform="matrix(2.4662 0 0 2.4662 2794.9673 3601.4832)" gradientUnits="userSpaceOnUse">
		<stop  offset="0" style="stop-color:#E6E6E6"/>
		<stop  offset="0.104" style="stop-color:#D6D6D6"/>
		<stop  offset="0.307" style="stop-color:#ADADAD"/>
		<stop  offset="0.588" style="stop-color:#6C6C6C"/>
		<stop  offset="0.933" style="stop-color:#121212"/>
		<stop  offset="1" style="stop-color:#000000"/>
	</radialGradient>
	<path class="st11" d="M234,138.5h-82.6V56h-3v82.6H66v3h82.6V224h3v-82.6H234V138.5z"/>
	
		<linearGradient id="SVGID_12_" gradientUnits="userSpaceOnUse" x1="-1079.1826" y1="-1449.809" x2="-1029.4846" y2="-1401.7843" gradientTransform="matrix(2.4662 0 0 2.4662 2794.9673 3601.4832)">
		<stop  offset="0" style="stop-color:#F0F4FF"/>
		<stop  offset="0.109" style="stop-color:#EBEFF9"/>
		<stop  offset="0.247" style="stop-color:#DCE0EA"/>
		<stop  offset="0.403" style="stop-color:#C4C7CF"/>
		<stop  offset="0.57" style="stop-color:#A2A4AB"/>
		<stop  offset="0.747" style="stop-color:#76777C"/>
		<stop  offset="0.929" style="stop-color:#414243"/>
		<stop  offset="1" style="stop-color:#2B2B2B"/>
	</linearGradient>
	<path class="st12" d="M151.5,58.3c44,0.8,79.4,36.3,80.2,80.2h1.5c-0.8-44.8-36.9-80.9-81.7-81.7L151.5,58.3z"/>
	<path class="st13" d="M68.1,138.5c0.8-44,36.3-79.5,80.3-80.3v-1.5c-44.8,0.8-81,37-81.8,81.8L68.1,138.5z"/>
	
		<linearGradient id="SVGID_13_" gradientUnits="userSpaceOnUse" x1="-1119.521" y1="-1409.2623" x2="-1069.8223" y2="-1361.2368" gradientTransform="matrix(2.4662 0 0 2.4662 2794.9673 3601.4832)">
		<stop  offset="0" style="stop-color:#F0F4FF"/>
		<stop  offset="0.109" style="stop-color:#EBEFF9"/>
		<stop  offset="0.247" style="stop-color:#DCE0EA"/>
		<stop  offset="0.403" style="stop-color:#C4C7CF"/>
		<stop  offset="0.57" style="stop-color:#A2A4AB"/>
		<stop  offset="0.747" style="stop-color:#76777C"/>
		<stop  offset="0.929" style="stop-color:#414243"/>
		<stop  offset="1" style="stop-color:#2B2B2B"/>
	</linearGradient>
	<path class="st14" d="M148.5,221.7c-44-0.8-79.4-36.3-80.2-80.2h-1.5c0.8,44.8,36.9,80.9,81.7,81.7L148.5,221.7L148.5,221.7z"/>
	<path class="st15" d="M231.7,141.5c-0.8,44-36.3,79.4-80.2,80.2v1.5c44.8-0.8,80.9-36.9,81.7-81.7H231.7L231.7,141.5z"/>
	
		<linearGradient id="SVGID_14_" gradientUnits="userSpaceOnUse" x1="-1095.478" y1="-1426.3876" x2="-1069.7073" y2="-1401.4845" gradientTransform="matrix(2.4662 0 0 2.4662 2794.9673 3601.4832)">
		<stop  offset="0" style="stop-color:#C2D7E8"/>
		<stop  offset="0.134" style="stop-color:#BACFE1"/>
		<stop  offset="0.343" style="stop-color:#A4BACD"/>
		<stop  offset="0.6" style="stop-color:#8098AC"/>
		<stop  offset="0.894" style="stop-color:#4E697F"/>
		<stop  offset="1" style="stop-color:#3A566D"/>
	</linearGradient>
	<path class="st16" d="M146.9,56.7v80.2H66.7v1.6h81.8V56.7H146.9z"/>
	
		<linearGradient id="SVGID_15_" gradientUnits="userSpaceOnUse" x1="-1108.3843" y1="-1420.2853" x2="-1059.1859" y2="-1372.7433" gradientTransform="matrix(2.4662 0 0 2.4662 2794.9673 3601.4832)">
		<stop  offset="0" style="stop-color:#F0F4FF"/>
		<stop  offset="9.700001e-02" style="stop-color:#E8EBF6"/>
		<stop  offset="0.257" style="stop-color:#D1D4DD"/>
		<stop  offset="0.459" style="stop-color:#ABAEB5"/>
		<stop  offset="0.695" style="stop-color:#78797D"/>
		<stop  offset="0.958" style="stop-color:#363637"/>
		<stop  offset="1" style="stop-color:#2B2B2B"/>
	</linearGradient>
	<path class="st17" d="M146.8,222.4v-79.2H67.4v-1.6h81v80.8H146.8z"/>
	
		<linearGradient id="SVGID_16_" gradientUnits="userSpaceOnUse" x1="-1072.1222" y1="-1402.6499" x2="-1054.8645" y2="-1385.9734" gradientTransform="matrix(2.4662 0 0 2.4662 2794.9673 3601.4832)">
		<stop  offset="0" style="stop-color:#D9DEF0"/>
		<stop  offset="0.123" style="stop-color:#D4DAEC"/>
		<stop  offset="0.263" style="stop-color:#C7CFE2"/>
		<stop  offset="0.411" style="stop-color:#B0BCD1"/>
		<stop  offset="0.566" style="stop-color:#90A1B8"/>
		<stop  offset="0.725" style="stop-color:#677F99"/>
		<stop  offset="0.885" style="stop-color:#355674"/>
		<stop  offset="0.972" style="stop-color:#173D5D"/>
	</linearGradient>
	<path class="st18" d="M153.2,222.4v-79.2h79.2v-1.6h-80.8v80.8H153.2z"/>
	
		<linearGradient id="SVGID_17_" gradientUnits="userSpaceOnUse" x1="-1089.7759" y1="-1438.3287" x2="-1040.6306" y2="-1390.8383" gradientTransform="matrix(2.4662 0 0 2.4662 2794.9673 3601.4832)">
		<stop  offset="0" style="stop-color:#F0F4FF"/>
		<stop  offset="0.109" style="stop-color:#EBEFF9"/>
		<stop  offset="0.247" style="stop-color:#DCE0EA"/>
		<stop  offset="0.403" style="stop-color:#C4C7CF"/>
		<stop  offset="0.57" style="stop-color:#A2A4AB"/>
		<stop  offset="0.747" style="stop-color:#76777C"/>
		<stop  offset="0.929" style="stop-color:#414243"/>
		<stop  offset="1" style="stop-color:#2B2B2B"/>
	</linearGradient>
	<path class="st19" d="M153.2,57.4v79.2h79.2v1.6h-80.8V57.4H153.2z"/>
</g>
</svg>
