<?xml version="1.0" encoding="utf-8"?>
<!-- Generator: Adobe Illustrator 23.0.1, SVG Export Plug-In . SVG Version: 6.00 Build 0)  -->
<svg version="1.1" id="Layer_1" xmlns="http://www.w3.org/2000/svg" xmlns:xlink="http://www.w3.org/1999/xlink" x="0px" y="0px"
	 viewBox="0 0 1000 1000" style="enable-background:new 0 0 1000 1000;" xml:space="preserve">
<style type="text/css">
	.st0{fill:#FFFFFF;stroke:#000000;stroke-width:0.75;}
	.st1{fill:#FF6600;}
	.st2{fill:#FFFFFF;}
</style>
<title>Layer 1</title>
<g>
	<path class="st0" d="M509.8,114.4c88.7,64,218.3,102.9,318.6,105.2l10.5,0.8v132.8H1000v289.1h-99l-9.7,9.9l-24.2,21.5
		C758.3,770.3,607,886.3,504,890.8h-0.9c-79-2.6-212.3-81.3-365.6-215.6l-23.2-20.3l-11.9-12.4H0v-289h164.5V220.4l10.7-0.5
		c130.3-6.1,229.3-38.6,321-105.6l6.5-5L509.8,114.4z"/>
	<path d="M502.7,123.4c89,69,210,98.6,324.7,107.6V325c-24.3-1.3-44.1,24.2-44.1,39.7h205.2V631H798.3c4.5,24.7,37.4,35.6,61.1,34.3
		C733,777.7,593.4,875.7,503.3,879.5c-82.2-2.7-221.1-92.3-358.6-212.8c57,0.9,62.1-35.6,62.1-35.6H11.2V364.9h204.6
		c-1-19.4-18.9-37.6-40.2-39.7v-93.9C297.6,225.4,402.9,196.3,502.7,123.4z"/>
	<path class="st1" d="M803.8,251.4c0,16.8,0,39.8,0,58.9c-22.4,4.7-45.1,35.1-45.1,54.5h-18.5c1.8-36.8,22.4-54.7,45.1-66.9
		c0-11.6,0-17.9,0-29.2c-97.9-2.4-212-44.5-282.9-92.3c-64.5,43.4-184.9,89.8-283.8,92.3c0,6.5,0,19.3,0,29.3
		c25.1,13,41.4,38.5,42.6,66.8h-19.4c-4.2-29.2-20.9-44.7-41.3-56.1c0-18.6,0-36.7,0-56c111.8-6.3,237.6-49.6,302.1-99.5
		C564.4,203.8,693.9,243.1,803.8,251.4z"/>
	<path class="st1" d="M546.3,226.8l-0.2,24.9l-31.5-15.5v128.7h-24.7c0-42.1,0-128.7,0-128.7l-30.8,15.3l0.2-24.5
		c0,0,35.6-17.9,43.4-23.6C510.9,209.3,546.3,226.8,546.3,226.8z"/>
	<path class="st1" d="M343.5,364.9c0-12.4,0.6-33.1-2.4-36.5c-6.1,11.1-11.4,24.8-16.5,35.1c-5.2-10.4-10.6-22.7-17.2-31.2
		l-0.7,32.6h-22.4v-82c12.2-2.1,15.8-3.2,22.2-4.2l17.6,38.1l18.5-45.4c7.6-2.2,15.3-3.9,23.1-5.3v98.7L343.5,364.9L343.5,364.9z"/>
	<path class="st1" d="M456.9,262c0,35.8,0,69.8,0,83.5c-0.2,19.4-6.8,18.9-39.8,19.1c-27.1,0.2-36,0.6-36.3-26.6v-57
		c0.5-21.6,6.1-20.5,30.7-32.8C449.8,229.6,455.8,235.9,456.9,262z M435.4,272.1c0-13.3-28.2,2.9-30,4.8c-5.7,5.8-4.3,43.1-4.1,58.8
		c0,3.5,1.8,7.6,6.2,7.6c7.1,0,17.5,0.2,23.4,0c2.3,0.2,4.4-1.5,4.6-3.8c0-0.4,0-0.9-0.1-1.3C435.4,334,435.4,272.1,435.4,272.1z"/>
	<path class="st1" d="M627,274.5v68.8c0,21.5-7.6,21.5-37.6,21.5c-28.3,0-40.8,0-40.8-21.5c0,0,0-62.3,0-85.5
		c0-31.1,25.2-17.8,44.3-10.2C611,254.8,627,257.8,627,274.5z M588.7,270c-10.4-3.1-17.4-4.9-17.4,6.5c0,19.4,0,51.8,0,51.8
		c0,16.7,8.6,15,18,15c6.5,0,16,1.5,15.9-8.5c0-20.7,0-28.5,0-50.7C605.3,272,595.3,272,588.7,270z"/>
	<path class="st1" d="M715.4,285.8c10.8,11.9,8.3,42.8-1.1,46c9.9,7.4,7.7,33.2,7.7,33.2h-21.2c0-25.7-5-26.2-17.4-26.1
		c-9-0.2-6.5,0-17,0V365H645v-97.5C674.6,273.8,709.6,279.4,715.4,285.8z M666.6,294.5v22.7c14,0.7,17.5,0.8,27.2,1.4
		c7.8,0,6-15.3,3.8-18.1C696,298,678.4,295.8,666.6,294.5z"/>
	<rect x="36.2" y="389.8" class="st1" width="928.6" height="215.4"/>
	<path class="st1" d="M254.8,631c0.1,19.5-8.7,38-24,50.1c90.7,81.2,213,150.3,273.2,154.3c61.1-4,180.1-77.7,271.1-154.9
		c-18.3-16.2-23.5-29.9-23.6-49.5h18c1.6,23.5,26.5,42.5,36.9,46.9c-133.5,110.3-218,164.2-303.6,175.5
		c-89-12.4-175.2-65.7-304.5-174.5c18-8,36.2-26.7,36.1-48L254.8,631L254.8,631z"/>
	<path d="M856.9,643.3c2.8,2.7,2.8,7.2,0,10c-2.7,2.8-7.2,2.8-10,0l0,0c-1.3-1.3-2.1-3.1-2-5c0-3.9,3-7,6.9-7.1
		C853.8,641.3,855.6,642,856.9,643.3z M857.7,642.7c-3.2-3.2-8.4-3.2-11.5,0s-3.2,8.4,0,11.5c3.2,3.2,8.4,3.2,11.5,0
		c1.5-1.5,2.4-3.6,2.4-5.8C860.2,646.3,859.3,644.2,857.7,642.7z M853.2,648c-0.5,0.2-1,0.2-1.5,0.2h-1.6V645h1.4
		c0.7,0,1.3,0.1,1.9,0.3c0.7,0.5,0.9,1.5,0.3,2.3C853.6,647.8,853.4,647.8,853.2,648L853.2,648z M848.7,652.8h1.4v-3.5h1.2
		c0.6,0,1.2,0.1,1.7,0.3c0.6,0.5,0.9,1.3,0.8,2v1.2h1.5l0,0c0-0.2,0-0.3,0-0.5s0-0.5,0-0.7v-0.9c0-0.5-0.2-1-0.5-1.4
		c-0.4-0.5-0.9-0.8-1.6-0.9c0.5-0.1,0.9-0.2,1.3-0.4c0.6-0.4,0.9-1.1,0.9-1.8c0.1-1-0.5-1.9-1.4-2.3c-0.8-0.3-1.6-0.4-2.4-0.3h-3.2
		v9L848.7,652.8z"/>
	<rect x="56.6" y="408" width="890.1" height="180.2"/>
	<path class="st2" d="M791.3,450.5v26.6H771c0-16.7,0-27.6-8-27.1c-6.9,0-5.7,8-5.8,14c0,17.8,9.2,21.1,18.5,28
		c12.4,9.3,16.7,15.3,16.8,41.6c0,19.4-6.5,34.3-27.6,34.3c-24.8,0-28.2-11.2-28.2-53.5c3.2,0,16.2,0,20.5,0c0,6.9,0,17,0,20.6
		s-0.7,12.1,7.7,12.1c5.1,0,7-4.2,7-16.2c0-13.7-4-18-8.6-21.4c-9.1-6.9-26.4-13.7-26.4-34.8c0-19.1-3-48,28.2-47.7
		C783.6,427.3,791.4,437.5,791.3,450.5z"/>
	<path class="st2" d="M104.2,482.4H119v-51.8h20.3v136.1h-20.4V510h-14.5v56.7H83.8V430.5h20.3C104.2,430.5,104.2,482.4,104.2,482.4
		z"/>
	<path class="st2" d="M297,544c7.4,0,13,0,20.3,0v22.7h-42.1V430.5h21.7L297,544L297,544z"/>
	<path class="st2" d="M364,452h-20.6v31.7c8.2,0,13.3,0,20.4,0v23.8h-20.4v36.2c7.6,0,12.6,0,20.3,0v22.9h-41.9V430.5h42.1L364,452
		L364,452z"/>
	<path class="st2" d="M387.6,430.5c2.7,14.4,5.1,28.6,9.4,44.5c4.6-16,5.8-29.2,10.3-44.4h20.1c-5.6,28.7-13,53.5-20.4,80.1
		c0,21.8,0,33.6,0,54.7h-20.5c0-22.4,0-38.1,0-55.1c-6.8-26.8-14.6-52.9-20.1-79.7L387.6,430.5z"/>
	<path class="st2" d="M604.3,429.5c2.5,26.4,5.2,54.2,8,80.6c0,0,6.5-56.8,9.7-80.6h20.2l-18.9,136.1h-21.7l-18-136.1h20.6H604.3z"
		/>
	<polygon class="st2" points="666.7,565.5 646.1,565.5 646.1,429.5 666.6,429.5 	"/>
	<path class="st2" d="M887.7,429.5c4.5,20.8,8.6,42.1,13.2,62.4l-0.8-62.4h20.5v134.9h-24c-4.6-25.4-9-49.2-14-74.7l0.6,74.7h-21.6
		V429.5H887.7L887.7,429.5z"/>
	<path class="st2" d="M853.7,455.3c0,13,0,87.3,0,87.3c0,14.3-13.8,26.6-28,26.4c-11.8-0.2-26.5-6.5-26.5-26.7c0-19.4,0-50.9,0-87.5
		c0-26.2,16.7-28.6,28.3-28.7C838.2,426,853.7,430.1,853.7,455.3z M818.5,455.6c0,17.4,0,49.9,0,81c0,11.7,14.3,14.9,14.3,2
		c0-31.3,0-75.1,0-82.9C833,446.5,818.6,446.3,818.5,455.6L818.5,455.6z"/>
	<path class="st2" d="M505.9,430.5c10.6,0,17.9,7.5,18,23.4c0,28.9,0,63.9,0.2,88.5c0.3,13-10,23.9-23,24.2c-0.5,0-0.9,0-1.4,0
		c-7.4,0-17.4,0-29.2,0V430.5H505.9z M491,451.1v92.6c3,0,2.8,0,7.3,0c3.2-0.4,5.4-3.3,5-6.4c0,0,0,0,0-0.1
		c0-16.7-0.2-74.5-0.2-79.7C503.1,448.4,491,451.1,491,451.1z"/>
	<path class="st2" d="M707.9,429.5c10.3,0,22.1,6,22.1,24v89.9c0,14.6-8.8,22.2-26.2,22.2h-28.2V429.5H707.9L707.9,429.5z M704,451
		c-3.7,0-6.7,0-6.7,0v92.7c12,0,13.4-0.5,13.5-6.5c0,0,0-55.4,0-78.7C710.7,454.6,707.8,451.5,704,451L704,451z"/>
	<path class="st2" d="M245.2,430.5c19.8,0,22.1,23.3,22.1,37.6c0,6.5,0.5,18.7-10.2,29.4c6.7,6,10.2,10.8,10.3,25.6
		c0,14.2,0,26.2,0,43.7H254c-2.4,0-8.3-2-8.2-6c0-8.6,0-26.9,0-37.1c0-8.4-5-9.3-9.7-9.3h-3.6v52.2h-22l0.3-136.1
		C219.7,430.5,222.5,430.5,245.2,430.5z M232.4,452.1v36.1h8c2.1,0,4.5-1.6,4.4-7c0.2-6.2,0-15.6,0-21.5
		C244.9,452.3,240.4,452.3,232.4,452.1L232.4,452.1z"/>
	<path class="st2" d="M589.4,565.5h-19.2c-2.3-11-3.2-21.7-5.2-32.9h-14.5l-4,32.9h-19.4c4-45,11.7-91.2,16.2-136.1h29.2
		L589.4,565.5z M557.4,458.5l-4.5,48.6h9.2C561.5,491,559.9,474.8,557.4,458.5L557.4,458.5z"/>
	<path class="st2" d="M190.2,430.5c5.3,44,10,88.2,14.9,136.1h-18.9c-1.6-12.1-3.2-24.8-4.2-32.6h-14l-3.8,32.6h-19.4
		c4.7-44.8,9.6-89.6,13.9-136.1H190.2z M173.7,458.1l-2.4,49.1h7.9C177.7,490,176.6,475.9,173.7,458.1L173.7,458.1z"/>
	<rect x="423.9" y="490.6" class="st2" width="37.4" height="16.9"/>
	<polygon class="st1" points="343.9,631.2 371.2,631.2 384.8,668.5 386.5,668.5 403.1,631.2 430.3,631.2 395.8,698.3 395.8,770.3 
		370.8,755.8 370.8,698.7 	"/>
	<path class="st1" d="M287.1,702.7l58.7,38.7v-27.7l-0.8-3.6l-35.1-20.4l-1.7-1.4c-1.6-0.6-2.7-2.1-2.9-3.8v-27.3
		c0.1-2.4,2.1-4.3,4.5-4.3l0,0h26.3v-21.7h-37.7c-10-0.2-18.4,7.7-18.6,17.8v39.5C279.8,694.2,282.5,699.3,287.1,702.7z"/>
	<path class="st1" d="M497.5,788.5l-23.9-8.9l-9-3.2c-3.1-1.1-5.2-4.1-5.3-7.4V660.8c0.1-4.5,3.8-8,8.3-7.9h29.9v-21.7h-45.4
		c-10-0.2-18.4,7.7-18.6,17.8v127.8c0,5.7,2.8,11,7.5,14.3l0,0c3.9,3.2,14.3,8.6,56.2,22.2v-24.7h0.3V788.5z"/>
	<path class="st1" d="M535.4,631.2h-25.6V812c20.6-3,40.8-8.8,59.9-17.1v-23.6l-34.2,10.8L535.4,631.2L535.4,631.2z"/>
	<path class="st1" d="M636.3,652.8v-21.7h-42.1c-10-0.2-18.4,7.7-18.6,17.8v116.3c0.5,24.6,22.5,13.9,23.8,13
		c5.5-3.4,37.3-23,37.3-23v-26.1l-27.1,15.2c-10.5,6-8.5-7.6-8.5-7.6V705H628V684h-26.9v-20l-0.1-3.5c0.1-4.4,3.7-7.9,8.1-7.8h27.1
		v0.1H636.3z"/>
	<path class="st1" d="M678.6,652.8c-2.1-0.1-3.9,1.6-4,3.8l0,0v5.2c0.1,2.1,1.8,3.8,4,3.8l0,0h27.5c7.6-0.3,14.1,5.6,14.4,13.2v19.1
		c-1.7,11.1-71,49.3-71,49.3l-0.2-25.9l29.2-16.5c29.7-16.8,7.2-16.2,7.2-16.2H663c-7.3,0.3-13.4-5.4-13.6-12.7v-32.1
		c0-7,6.7-12.8,15-12.8h4.6h49.7v21.7L678.6,652.8L678.6,652.8z"/>
</g>
</svg>
