<?xml version="1.0" encoding="utf-8"?>
<!-- Generator: Adobe Illustrator 23.0.3, SVG Export Plug-In . SVG Version: 6.00 Build 0)  -->
<svg version="1.2" baseProfile="tiny" id="Layer_1" xmlns="http://www.w3.org/2000/svg" xmlns:xlink="http://www.w3.org/1999/xlink"
	 x="0px" y="0px" viewBox="0 0 175.7 18.6" xml:space="preserve">
<path fill-rule="evenodd" fill="#ED1C24" d="M0,11.2v7.1h16.2v-7.1v-1h3.2c2,0,5.4,0.3,8.4,1c3.6,0.8,6.7,2,6.7,3.9
	c0,1.5-2.4,3.2-2.4,3.2h23.2c0,0-0.6-2.6-1.8-4.2c-0.8-1.1-1.7-2.1-3.2-2.9c-1.3-0.7-2.9-1.2-5.2-1.6V9.2c1,0,3.8-1,6.2-2.6
	c3.3-2.2,3.9-6.2,3.9-6.2H32.3c0,0,1.9,1.6,1.9,3c0,3-10.8,5.3-14.8,5.3h-3.2V0.4H0V11.2L0,11.2z M59.3,11.2V0.5h5.8v5.8l5.1-5.8
	h6.8l-6.5,6.7l2.6,4l4.6,7.1h-7l-4.3-7.1l-1.4,1.4v5.6h-5.8L59.3,11.2L59.3,11.2z M79.2,11.2C82,10.1,86,10.7,86,9.1
	c0-0.9-1.1-1-1.7-1c-0.7,0-1.7,0.1-1.8,1.2h-4.9c0-2.8,1.9-4.3,7.1-4.3c6.1,0,6.5,2.3,6.5,5.3v0.9v5.2c0,0.7,0,1.1,0.7,1.6v0.2h-5.3
	l-0.2-1.4c-1.4,1.4-3,1.7-4.9,1.7c-2.5,0-4.6-1.2-4.6-3.9C76.8,12.8,77.8,11.8,79.2,11.2L79.2,11.2z M92.5,11.2l-1.9-5.8h5l1.4,5.8
	l0.5,2.2l0.6-2.1l1.5-5.8h4.4l1.4,5.8l0.5,2.1l0.5-2.1l1.5-5.8h4.9l-1.9,5.8l-2.3,7.1h-5l-1.9-7.1l-0.1-0.5l-0.1,0.5l-1.7,7.1h-5
	L92.5,11.2L92.5,11.2z M113.8,11.2c2.7-1.1,6.8-0.5,6.8-2.1c0-0.9-1.1-1-1.7-1c-0.7,0-1.7,0.1-1.8,1.2h-5c0-2.8,2-4.3,7.1-4.3
	c6.1,0,6.5,2.3,6.5,5.3v0.9v5.2c0,0.7,0,1.1,0.7,1.6v0.2h-5.3l-0.3-1.4c-1.4,1.4-2.9,1.7-4.9,1.7c-2.4,0-4.6-1.2-4.6-3.9
	C111.4,12.8,112.4,11.8,113.8,11.2L113.8,11.2z M127.2,11.2c-0.4-0.5-0.6-1.1-0.6-1.9c0-3.3,3.4-4.3,6.1-4.3c2.8,0,6.1,0.6,6.4,4.1
	h-4.7c-0.1-0.4-0.2-0.7-0.5-0.9c-0.3-0.2-0.6-0.3-1-0.3c-0.9,0-1.4,0.3-1.4,0.9c0,1.3,4.1,1,6.5,2.5c1,0.6,1.7,1.5,1.7,3
	c0,2.7-2.2,4.5-7,4.5c-3,0-6.2-0.9-6.5-4.4h4.9c0,0.5,0.2,0.9,0.5,1.2c0.3,0.2,0.8,0.4,1.3,0.4c0.8,0,1.6-0.2,1.6-1.1
	C134.5,12.9,128.9,13.8,127.2,11.2L127.2,11.2z M142.3,11.2c2.7-1.1,6.8-0.5,6.8-2.1c0-0.9-1.1-1-1.7-1c-0.7,0-1.7,0.1-1.8,1.2h-4.9
	c0-2.8,1.9-4.3,7.1-4.3c6.1,0,6.5,2.3,6.5,5.3v0.9v5.2c0,0.7,0,1.1,0.7,1.6v0.2h-5.3l-0.2-1.4c-1.4,1.4-2.9,1.7-4.9,1.7
	c-2.5,0-4.6-1.2-4.6-3.9C139.8,12.8,140.9,11.8,142.3,11.2L142.3,11.2z M155.2,11.2V0.5h5.1v8.8l3.3-3.9h6l-4.8,5l0.6,0.8l4.9,7.1
	h-6.2l-2.8-4.6l-1,1v3.6h-5.1L155.2,11.2L155.2,11.2z M170.6,5.3v5.8v7.1h5.1v-7.1V5.3H170.6L170.6,5.3z M170.6,0v3.7h5.1V0H170.6
	L170.6,0z M149.1,12.6c-1.7,0.8-3.9,0.4-3.9,2.1c0,0.6,0.6,1.1,1.6,1.1C148.6,15.7,149.2,14.3,149.1,12.6L149.1,12.6z M120.6,12.6
	c-1.7,0.8-3.9,0.4-3.9,2.1c0,0.6,0.6,1.1,1.6,1.1C120.1,15.7,120.7,14.3,120.6,12.6L120.6,12.6z M86,12.6c-1.7,0.8-3.9,0.4-3.9,2.1
	c0,0.6,0.6,1.1,1.6,1.1C85.5,15.7,86.1,14.3,86,12.6L86,12.6z"/>
</svg>
