<?xml version="1.0" encoding="utf-8"?>
<!-- Generator: Adobe Illustrator 24.2.0, SVG Export Plug-In . SVG Version: 6.00 Build 0)  -->
<svg version="1.1" id="katman_1" xmlns="http://www.w3.org/2000/svg" xmlns:xlink="http://www.w3.org/1999/xlink" x="0px" y="0px"
	 viewBox="0 0 1000 1000" style="enable-background:new 0 0 1000 1000;" xml:space="preserve">
<style type="text/css">
	.st0{fill-rule:evenodd;clip-rule:evenodd;fill:#020102;}
	.st1{fill:#020102;}
</style>
<g>
	<path class="st0" d="M895.1,426.6v-5.8h2.7c3,0,4.1,1.1,4.1,2.9c0,1.8-1.3,2.9-3.7,2.9H895.1L895.1,426.6L895.1,426.6z
		 M900.9,428.5c2.6-0.4,4.5-1.9,4.5-4.8c0-4.1-3.9-5.1-7.5-5.1h-6.3v16.6h3.5v-6.3h2.3l4.6,6.3h4.5L900.9,428.5L900.9,428.5
		L900.9,428.5z"/>
	<path class="st0" d="M194.4,579.3c-0.1,1.5-0.1,3-0.1,4.5c0.4,1.3,1.6,0.4,2.3,0.2l7.2-4.7h33.8l-15.8,10.4l53.8-10.4h147.6
		l-55.7,11.1L96.9,642.7c-1.2-0.4-0.2-1.7,0.2-2.3c8-8.7,14-18.3,17-29.6c11.9-2.8,24.5-5.1,36.7-7.6c3.7-0.9,7.6-1.2,11.1-2.7
		c-7.1-6.9-13.9-14-20.3-21.3H194.4L194.4,579.3L194.4,579.3z"/>
	<path class="st0" d="M346.4,524.4l-0.3,1.2l-25.5,21.2c-1.3-0.4-2.3-1.9-2.9-3.1c-1.3-4.4-1.3-10.1,1-14.2
		c4.9-7.5,13.6-10.6,22.5-8.6C343.6,520.8,344.9,522.9,346.4,524.4L346.4,524.4L346.4,524.4z M384.3,515.8l-0.8,1.2l-40.9,35.6
		c-0.1,1.6,2,1.2,3,1.7c8.5,1.7,17.1,0.5,24-3.9l40.1-34.6h28.8L390.6,557l-0.7,1.8c15-2.7,30.1-5.1,44.8-8.6c-0.9-2-2.9-4-3.7-6.3
		c-1.9-10,10.2-6.4,14.1-13.1c3-3.5,4-8.9,2.8-13.4l-0.9-1.6h76.2l-9.7,6.2c-3.2,2.4-7,3.6-9.8,6.6c-1.7,3.2-3.5,6.7-4.4,10
		c16.1-2.6,32-5.9,47.8-9.3c1.4-4.3,2.4-8.8,3.1-13.5l36.1,0c-0.4,1.9-0.6,3.8-1,5.6l1,1.1l15.5-2.6l1.1-1c-2.7-0.8-5.3-1.8-7.8-3.1
		l139.1,0l-152.4,29.8l-1.1,1.6l-3.7,19.8l-1.5,0.7c-11.8,2.2-23.5,4.7-35.4,6.6c0.1-6.3,2.8-11.5,2-17.2c-18.8,2-36.6,6.1-54.6,9.4
		l-64.4,12.8H275.5l28.8-5.6l3.2-1c-4.9-3.7-10.6-7-14.9-12c-4.1-3.3-5.2-10-10.8-10.5l-44.2,29h-33.8l77.8-50.3
		c1-4.4,2.5-8.8,4.5-13.1L384.3,515.8L384.3,515.8L384.3,515.8z M140.8,515.8c5.5,22,14.9,42.8,29.6,61.5
		c0.5-22.1,4.4-42.8,12.4-61.5l39.2,0c-8.7,8.6-15.7,18.7-19.9,29.4c-4.4,10.6-6.9,22.1-7.5,34l-52.8,0
		c-17.4-19.7-32-40.8-42.3-63.4L140.8,515.8L140.8,515.8L140.8,515.8z"/>
	<path class="st0" d="M773.8,454c2.2,4.8,1.7,11.7-1.9,15.8c-3.9,4-9.3,4.9-14.5,3.5c-5.1-1.5-10.5-6.1-11.8-11.6
		c-1.8-4.6-1-11,2.7-14.5c4.4-4.3,11.3-4.8,16.7-2.3C768.5,446.7,772.2,450.2,773.8,454L773.8,454L773.8,454z M818.2,478.4
		c-4.7,2.4-10.7,3.3-16.4,4.2c-0.4-1.9,2-2.9,2.4-4.6l2.7-6C811.1,473.2,813.5,478.1,818.2,478.4L818.2,478.4L818.2,478.4z
		 M707.9,470.7c1,10.1,7.4,20.5,16.8,25.4l-65.2,13.2c1.9-4.2,5.6-7.3,6.6-11.7l40.3-26.5C706.9,470.9,707.3,470.5,707.9,470.7
		L707.9,470.7L707.9,470.7z M627.4,478.1c2.2,4.7,1.8,11.8-1.3,16c-3.5,4.5-8.7,6.4-14.3,5.8c-6.9-0.9-12.9-5.8-15.9-12.3
		c-2.5-6.2-2.2-14.8,3.2-19.6c5.5-4.1,14.3-3.7,19.8-0.1C622.5,470.4,626.1,474,627.4,478.1L627.4,478.1L627.4,478.1z M409.7,515.8
		l45.3-39.1l16.1-14c3.8,0,6.5,3.1,9.6,5c12.8,9.8,20.5,24.3,22.9,39c0.5,0.9,1.9,1,2.7,0.4c17.4-11.4,34.4-24,51.7-35.7
		c1.1-3.3,1.3-7,2.4-10.4c22.3-21,51.2-32.4,81.5-24.5c14.6,4.8,27.9,18.6,32,33.7c0.7,0.9,1.7,0.2,2.5,0l31.8-19.7
		c5-3.8,6.2-9.9,10.3-14.4c15.2-20.2,39.3-30.6,63.9-24.5c8.4,1.7,15.7,5.6,22.9,9.7c2.6-2.9,0.8-9,5.8-9.7
		c13.1,0,26.4,0.5,39.3-0.4l0.3,1.1l-7.2,32.2c-0.4,5.9,2.6,11.4,7.7,14.6c3.1,2.4,7.4,2.4,11.2,1.8c3.3-0.9,6.1-3.7,8.9-5.8
		c7.2,3.9,14,8.3,21,12.4c4.9-0.6,10-0.4,14.4-2.3l1,0.3c2.1,4.9,5.5,9.8,9.2,13.9l-1.5,1.3l-68.9,12.7L748.6,513l-14.4,2.8H595.1
		c-2.2-1.2-4.3-2.6-6.2-4.5l-1-0.1c-0.8,1.4-1.2,2.9-1.6,4.5l-36.1,0c0.9-6,1.5-12.1,2.4-18l-1-0.1l-28.4,18h-76.2l-2-3.6
		c-0.6-0.4-1.6-0.4-2.3-0.2l-4.3,3.7H409.7L409.7,515.8L409.7,515.8z M286.1,515.8c6.7-14.5,19-27.2,34.4-31.9
		c19.8-5.9,43.8-1.1,56.7,16.4c3.7,4.3,5.7,9.2,8.1,14l-1,1.5H286.1L286.1,515.8L286.1,515.8z M182.7,515.8
		c8.3-19.6,20.9-37,38.3-51.5c10.4-7.2,20.8-14.3,33-16.3c7.3,13.8,15.5,27.3,25.9,40.1c0.5,1.3,0.1,2.9-1.5,3.2
		c-20.7-0.5-41.3,9.6-56.6,24.5L182.7,515.8L182.7,515.8L182.7,515.8z M99.2,515.8c-8.9-19.6-14.5-40.3-15.8-62.1
		c-1.9-34.5,11.8-62.9,35.7-85.3c5.2-4.6,10.7-8.6,16.7-11c1.9,3.3,2.8,7.3,4.4,10.9c6.4,14.9,17.3,28.5,29,40.9
		c-3.2,5.5-8.6,9.9-12.2,15.3c-17.3,21.1-25,52.1-18.8,79.9c0.7,3.9,1.6,7.8,2.5,11.6L99.2,515.8L99.2,515.8L99.2,515.8z"/>
	<path class="st1" d="M883.7,426.9L883.7,426.9L883.7,426.9c0-4,1.6-7.7,4.3-10.3c2.6-2.6,6.3-4.3,10.3-4.3v0h0h0v0
		c4,0,7.7,1.6,10.3,4.3c2.6,2.6,4.3,6.3,4.3,10.3h0v0v0h0c0,4-1.6,7.7-4.3,10.3h0c-2.6,2.6-6.3,4.3-10.3,4.3v0h0h0v0
		c-4,0-7.7-1.6-10.3-4.3C885.3,434.5,883.7,430.9,883.7,426.9L883.7,426.9L883.7,426.9L883.7,426.9z M885.4,426.9L885.4,426.9
		L885.4,426.9L885.4,426.9L885.4,426.9c0,3.5,1.4,6.8,3.8,9.1c2.3,2.3,5.5,3.8,9.1,3.8v0h0h0v0c3.5,0,6.7-1.4,9.1-3.8l0,0
		c2.3-2.3,3.8-5.5,3.8-9.1h0v0v0h0c0-3.5-1.4-6.7-3.8-9.1c-2.3-2.3-5.5-3.8-9.1-3.8v0h0h0v0c-3.5,0-6.7,1.4-9.1,3.8
		C886.8,420.1,885.4,423.3,885.4,426.9L885.4,426.9z"/>
</g>
</svg>
